<?xml version="1.0" standalone="no"?>
<!DOCTYPE svg PUBLIC "-//W3C//DTD SVG 20010904//EN"
 "http://www.w3.org/TR/2001/REC-SVG-20010904/DTD/svg10.dtd">
<svg version="1.0" xmlns="http://www.w3.org/2000/svg"
 width="700.000000pt" height="700.000000pt" viewBox="0 0 700.000000 700.000000"
 preserveAspectRatio="xMidYMid meet">
<metadata>
Created by potrace 1.11, written by Peter Selinger 2001-2013
</metadata>
<g transform="translate(0.000000,700.000000) scale(0.100000,-0.100000)"
fill="#000000" stroke="none">
<path d="M3260 6994 c-378 -35 -665 -97 -990 -217 -675 -248 -1287 -738 -1695
-1357 -299 -454 -476 -938 -552 -1510 -25 -190 -25 -631 0 -820 59 -445 165
-793 353 -1165 338 -669 878 -1209 1548 -1549 369 -187 729 -296 1166 -353
100 -13 206 -17 410 -17 283 0 431 12 644 54 108 21 99 25 -89 40 -199 16
-411 54 -585 107 -775 232 -1307 752 -1486 1453 -21 84 -54 284 -54 333 l0 37
734 0 735 0 16 -57 c57 -207 153 -352 301 -453 272 -188 768 -222 1070 -73
194 96 336 257 408 463 46 134 49 155 53 477 3 172 2 313 -1 313 -3 0 -54 -24
-113 -54 -342 -172 -678 -249 -1088 -250 -515 -1 -975 155 -1384 468 -266 203
-498 489 -642 791 -87 182 -143 359 -186 590 -26 141 -26 551 0 710 48 293
114 498 237 740 76 151 115 212 221 350 254 331 622 591 1025 723 178 59 308
86 506 107 207 21 263 19 628 -19 l55 -6 -45 15 c-112 37 -346 85 -540 110
-120 16 -559 28 -660 19z"/>
<path d="M4230 5664 c-293 -27 -554 -161 -720 -369 -136 -172 -206 -353 -230
-599 -35 -351 117 -678 422 -908 66 -49 253 -140 333 -161 276 -74 612 -38
860 91 86 45 199 128 288 212 l67 62 0 632 0 632 -62 60 c-191 184 -374 281
-619 328 -81 15 -267 26 -339 20z"/>
<path d="M6751 3500 c0 -1068 2 -1290 13 -1265 38 88 103 296 138 440 69 288
92 490 93 820 0 328 -24 543 -93 830 -35 144 -100 352 -138 440 -11 25 -13
-197 -13 -1265z"/>
</g>
</svg>
